<mxfile host="Electron" modified="2023-07-27T11:15:38.811Z" agent="Mozilla/5.0 (Windows NT 10.0; Win64; x64) AppleWebKit/537.36 (KHTML, like Gecko) draw.io/21.5.1 Chrome/112.0.5615.204 Electron/24.6.0 Safari/537.36" etag="dbik-_CN3u4l3UvjqsIy" version="21.5.1" type="device">
  <diagram name="第 1 页" id="RpPuRdrz1AWLCNLnQq5Q">
    <mxGraphModel dx="1814" dy="4089" grid="1" gridSize="10" guides="1" tooltips="1" connect="1" arrows="1" fold="1" page="1" pageScale="1" pageWidth="827" pageHeight="1169" math="0" shadow="0">
      <root>
        <mxCell id="0" />
        <mxCell id="1" parent="0" />
        <mxCell id="jXtzwTDHDPlX1xh7_4lc-85" value="" style="rounded=0;whiteSpace=wrap;html=1;fillColor=#dae8fc;strokeColor=#6c8ebf;sketch=1;curveFitting=1;jiggle=2;fontColor=#000000;" vertex="1" parent="1">
          <mxGeometry x="760" y="-2544" width="940" height="404" as="geometry" />
        </mxCell>
        <mxCell id="jXtzwTDHDPlX1xh7_4lc-69" value="" style="rounded=0;whiteSpace=wrap;html=1;fillColor=#bac8d3;strokeColor=#23445d;sketch=1;curveFitting=1;jiggle=2;fontColor=#000000;" vertex="1" parent="1">
          <mxGeometry x="760" y="-2940" width="940" height="370" as="geometry" />
        </mxCell>
        <mxCell id="jXtzwTDHDPlX1xh7_4lc-40" value="" style="rounded=1;whiteSpace=wrap;html=1;fillColor=#ffe6cc;strokeColor=#d79b00;sketch=1;curveFitting=1;jiggle=2;fontColor=#000000;" vertex="1" parent="1">
          <mxGeometry x="-110" y="-2506" width="820" height="386" as="geometry" />
        </mxCell>
        <mxCell id="jXtzwTDHDPlX1xh7_4lc-7" value="" style="rounded=0;whiteSpace=wrap;html=1;fillColor=#fad7ac;strokeColor=#b46504;sketch=1;curveFitting=1;jiggle=2;fontColor=#000000;" vertex="1" parent="1">
          <mxGeometry x="-90" y="-2920" width="780" height="260" as="geometry" />
        </mxCell>
        <mxCell id="jXtzwTDHDPlX1xh7_4lc-1" value="原子性" style="rounded=1;whiteSpace=wrap;html=1;fillColor=#fff2cc;strokeColor=#d6b656;sketch=1;curveFitting=1;jiggle=2;fontColor=#000000;" vertex="1" parent="1">
          <mxGeometry x="30" y="-2880" width="120" height="60" as="geometry" />
        </mxCell>
        <mxCell id="jXtzwTDHDPlX1xh7_4lc-2" value="一致性" style="rounded=1;whiteSpace=wrap;html=1;fillColor=#dae8fc;strokeColor=#6c8ebf;sketch=1;curveFitting=1;jiggle=2;fontColor=#000000;" vertex="1" parent="1">
          <mxGeometry x="164" y="-2880" width="120" height="60" as="geometry" />
        </mxCell>
        <mxCell id="jXtzwTDHDPlX1xh7_4lc-3" value="隔离性" style="rounded=1;whiteSpace=wrap;html=1;fillColor=#e1d5e7;strokeColor=#9673a6;sketch=1;curveFitting=1;jiggle=2;fontColor=#000000;" vertex="1" parent="1">
          <mxGeometry x="300" y="-2880" width="120" height="60" as="geometry" />
        </mxCell>
        <mxCell id="jXtzwTDHDPlX1xh7_4lc-4" value="持久性" style="rounded=0;whiteSpace=wrap;html=1;fillColor=#f8cecc;strokeColor=#b85450;sketch=1;curveFitting=1;jiggle=2;fontColor=#000000;" vertex="1" parent="1">
          <mxGeometry x="440" y="-2880" width="120" height="60" as="geometry" />
        </mxCell>
        <mxCell id="jXtzwTDHDPlX1xh7_4lc-6" value="&lt;font style=&quot;font-size: 14px;&quot;&gt;1：原子性：要么同时成功，要用同时失败&lt;br&gt;2：一致性：执行事务之后，数据保持一致&lt;br&gt;3：隔离性：并发条件下，各个事务并不相互影响&lt;br&gt;4：持久性：一个事务被提交之后。它对数据库中数据的改变是持久的，即使数据库发生故障也不应该对其有任何影响。&lt;br&gt;&lt;/font&gt;" style="text;html=1;strokeColor=none;fillColor=none;align=left;verticalAlign=middle;whiteSpace=wrap;rounded=0;sketch=1;curveFitting=1;jiggle=2;fontColor=#000000;" vertex="1" parent="1">
          <mxGeometry x="20" y="-2800" width="570" height="120" as="geometry" />
        </mxCell>
        <mxCell id="jXtzwTDHDPlX1xh7_4lc-10" value="脏读" style="rounded=1;whiteSpace=wrap;html=1;fillColor=#60a917;strokeColor=#2D7600;fontColor=#000000;sketch=1;curveFitting=1;jiggle=2;" vertex="1" parent="1">
          <mxGeometry x="-10" y="-2590" width="120" height="60" as="geometry" />
        </mxCell>
        <mxCell id="jXtzwTDHDPlX1xh7_4lc-11" value="数据丢失" style="rounded=1;whiteSpace=wrap;html=1;fillColor=#008a00;fontColor=#000000;strokeColor=#005700;sketch=1;curveFitting=1;jiggle=2;" vertex="1" parent="1">
          <mxGeometry x="140" y="-2590" width="120" height="60" as="geometry" />
        </mxCell>
        <mxCell id="jXtzwTDHDPlX1xh7_4lc-12" value="可重复读" style="rounded=1;whiteSpace=wrap;html=1;fillColor=#1ba1e2;fontColor=#000000;strokeColor=#006EAF;sketch=1;curveFitting=1;jiggle=2;" vertex="1" parent="1">
          <mxGeometry x="290" y="-2590" width="120" height="60" as="geometry" />
        </mxCell>
        <mxCell id="jXtzwTDHDPlX1xh7_4lc-13" value="幻读" style="rounded=1;whiteSpace=wrap;html=1;fillColor=#1ba1e2;fontColor=#000000;strokeColor=#006EAF;sketch=1;curveFitting=1;jiggle=2;" vertex="1" parent="1">
          <mxGeometry x="450" y="-2590" width="120" height="60" as="geometry" />
        </mxCell>
        <mxCell id="jXtzwTDHDPlX1xh7_4lc-15" value="元数据" style="ellipse;whiteSpace=wrap;html=1;aspect=fixed;fillColor=#a20025;fontColor=#000000;strokeColor=#6F0000;sketch=1;curveFitting=1;jiggle=2;" vertex="1" parent="1">
          <mxGeometry x="316" y="-2374" width="80" height="80" as="geometry" />
        </mxCell>
        <mxCell id="jXtzwTDHDPlX1xh7_4lc-24" value="" style="edgeStyle=orthogonalEdgeStyle;rounded=0;orthogonalLoop=1;jettySize=auto;html=1;sketch=1;curveFitting=1;jiggle=2;fontColor=#000000;" edge="1" parent="1" source="jXtzwTDHDPlX1xh7_4lc-16" target="jXtzwTDHDPlX1xh7_4lc-23">
          <mxGeometry relative="1" as="geometry" />
        </mxCell>
        <mxCell id="jXtzwTDHDPlX1xh7_4lc-16" value="Actor" style="shape=umlActor;verticalLabelPosition=bottom;verticalAlign=top;html=1;outlineConnect=0;sketch=1;curveFitting=1;jiggle=2;fontColor=#000000;whiteSpace=wrap;" vertex="1" parent="1">
          <mxGeometry x="-74" y="-2414" width="30" height="60" as="geometry" />
        </mxCell>
        <mxCell id="jXtzwTDHDPlX1xh7_4lc-26" value="" style="edgeStyle=orthogonalEdgeStyle;rounded=0;orthogonalLoop=1;jettySize=auto;html=1;sketch=1;curveFitting=1;jiggle=2;fontColor=#000000;" edge="1" parent="1" source="jXtzwTDHDPlX1xh7_4lc-17" target="jXtzwTDHDPlX1xh7_4lc-25">
          <mxGeometry relative="1" as="geometry" />
        </mxCell>
        <mxCell id="jXtzwTDHDPlX1xh7_4lc-17" value="Actor" style="shape=umlActor;verticalLabelPosition=bottom;verticalAlign=top;html=1;outlineConnect=0;sketch=1;curveFitting=1;jiggle=2;fontColor=#000000;whiteSpace=wrap;" vertex="1" parent="1">
          <mxGeometry x="-74" y="-2284" width="30" height="60" as="geometry" />
        </mxCell>
        <mxCell id="jXtzwTDHDPlX1xh7_4lc-27" style="edgeStyle=orthogonalEdgeStyle;rounded=0;orthogonalLoop=1;jettySize=auto;html=1;entryX=0.02;entryY=0.397;entryDx=0;entryDy=0;entryPerimeter=0;sketch=1;curveFitting=1;jiggle=2;fontColor=#000000;" edge="1" parent="1" source="jXtzwTDHDPlX1xh7_4lc-23" target="jXtzwTDHDPlX1xh7_4lc-15">
          <mxGeometry relative="1" as="geometry" />
        </mxCell>
        <mxCell id="jXtzwTDHDPlX1xh7_4lc-23" value="我需要元数据" style="whiteSpace=wrap;html=1;verticalAlign=top;fillColor=#f0a30a;fontColor=#000000;strokeColor=#BD7000;sketch=1;curveFitting=1;jiggle=2;" vertex="1" parent="1">
          <mxGeometry x="-4" y="-2399" width="195" height="30" as="geometry" />
        </mxCell>
        <mxCell id="jXtzwTDHDPlX1xh7_4lc-28" style="edgeStyle=orthogonalEdgeStyle;rounded=0;orthogonalLoop=1;jettySize=auto;html=1;entryX=0;entryY=0.375;entryDx=0;entryDy=0;entryPerimeter=0;sketch=1;curveFitting=1;jiggle=2;fontColor=#000000;" edge="1" parent="1" source="jXtzwTDHDPlX1xh7_4lc-25" target="jXtzwTDHDPlX1xh7_4lc-15">
          <mxGeometry relative="1" as="geometry" />
        </mxCell>
        <mxCell id="jXtzwTDHDPlX1xh7_4lc-25" value="我修改元数据" style="whiteSpace=wrap;html=1;verticalAlign=top;fillColor=#e3c800;fontColor=#000000;strokeColor=#B09500;sketch=1;curveFitting=1;jiggle=2;" vertex="1" parent="1">
          <mxGeometry x="-4" y="-2269" width="195" height="30" as="geometry" />
        </mxCell>
        <mxCell id="jXtzwTDHDPlX1xh7_4lc-30" value="01：我手动开启事务，并查询了元数据" style="text;html=1;align=center;verticalAlign=middle;resizable=0;points=[];autosize=1;strokeColor=none;fillColor=none;sketch=1;curveFitting=1;jiggle=2;fontColor=#000000;" vertex="1" parent="1">
          <mxGeometry x="-79" y="-2484" width="230" height="30" as="geometry" />
        </mxCell>
        <mxCell id="jXtzwTDHDPlX1xh7_4lc-31" value="02：我手动开启事务，并修改了了元数据，但是未提交事务" style="text;html=1;align=center;verticalAlign=middle;resizable=0;points=[];autosize=1;strokeColor=none;fillColor=none;sketch=1;curveFitting=1;jiggle=2;fontColor=#000000;" vertex="1" parent="1">
          <mxGeometry x="-90" y="-2324" width="340" height="30" as="geometry" />
        </mxCell>
        <mxCell id="jXtzwTDHDPlX1xh7_4lc-34" value="" style="edgeStyle=orthogonalEdgeStyle;rounded=0;orthogonalLoop=1;jettySize=auto;html=1;sketch=1;curveFitting=1;jiggle=2;fontColor=#000000;" edge="1" parent="1" source="jXtzwTDHDPlX1xh7_4lc-32" target="jXtzwTDHDPlX1xh7_4lc-33">
          <mxGeometry relative="1" as="geometry" />
        </mxCell>
        <mxCell id="jXtzwTDHDPlX1xh7_4lc-32" value="03：我在其他事务，未提交事务的情况下读取了数据" style="text;html=1;align=center;verticalAlign=middle;resizable=0;points=[];autosize=1;strokeColor=none;fillColor=none;sketch=1;curveFitting=1;jiggle=2;fontColor=#000000;" vertex="1" parent="1">
          <mxGeometry x="-79" y="-2454" width="300" height="30" as="geometry" />
        </mxCell>
        <mxCell id="jXtzwTDHDPlX1xh7_4lc-38" value="" style="edgeStyle=orthogonalEdgeStyle;rounded=0;orthogonalLoop=1;jettySize=auto;html=1;sketch=1;curveFitting=1;jiggle=2;fontColor=#000000;" edge="1" parent="1" source="jXtzwTDHDPlX1xh7_4lc-33" target="jXtzwTDHDPlX1xh7_4lc-37">
          <mxGeometry relative="1" as="geometry" />
        </mxCell>
        <mxCell id="jXtzwTDHDPlX1xh7_4lc-33" value="04：这个时候：02发生异常造成了数据回滚" style="whiteSpace=wrap;html=1;fillColor=#76608a;fontColor=#000000;strokeColor=#432D57;sketch=1;curveFitting=1;jiggle=2;" vertex="1" parent="1">
          <mxGeometry x="408" y="-2462.75" width="246" height="47.5" as="geometry" />
        </mxCell>
        <mxCell id="jXtzwTDHDPlX1xh7_4lc-37" value="05：这个时候我们读取的是02：事务修改的数据，但是发生了异常数据库其实并未修改，就造成了脏读" style="whiteSpace=wrap;html=1;fillColor=#f0a30a;strokeColor=#BD7000;fontColor=#000000;sketch=1;curveFitting=1;jiggle=2;" vertex="1" parent="1">
          <mxGeometry x="416" y="-2374" width="230" height="110" as="geometry" />
        </mxCell>
        <mxCell id="jXtzwTDHDPlX1xh7_4lc-41" value="&lt;font style=&quot;font-size: 14px;&quot;&gt;解决方式：读取已提交的事务的数据就可以解决（&lt;/font&gt;&lt;strong style=&quot;margin: 0px; padding: 0px; outline: 0px; max-width: 100%; box-sizing: border-box; font-family: Optima-Regular, Optima, PingFangSC-light, PingFangTC-light, &amp;quot;PingFang SC&amp;quot;, Cambria, Cochin, Georgia, Times, &amp;quot;Times New Roman&amp;quot;, serif; font-size: 16px; letter-spacing: 0.544px; text-align: left; text-indent: -20px; background-color: rgb(255, 255, 255); line-height: 1.5; overflow-wrap: break-word !important;&quot;&gt;READ-COMMITTED&lt;/strong&gt;&lt;font style=&quot;font-size: 14px;&quot;&gt;）&lt;/font&gt;" style="text;html=1;strokeColor=#BD7000;fillColor=#f0a30a;align=center;verticalAlign=middle;whiteSpace=wrap;rounded=0;fontColor=#000000;sketch=1;curveFitting=1;jiggle=2;" vertex="1" parent="1">
          <mxGeometry x="124" y="-2200" width="416" height="50" as="geometry" />
        </mxCell>
        <mxCell id="jXtzwTDHDPlX1xh7_4lc-52" value="" style="edgeStyle=orthogonalEdgeStyle;rounded=0;orthogonalLoop=1;jettySize=auto;html=1;sketch=1;curveFitting=1;jiggle=2;fontColor=#000000;" edge="1" parent="1" source="jXtzwTDHDPlX1xh7_4lc-44" target="jXtzwTDHDPlX1xh7_4lc-51">
          <mxGeometry relative="1" as="geometry" />
        </mxCell>
        <mxCell id="jXtzwTDHDPlX1xh7_4lc-44" value="Actor" style="shape=umlActor;verticalLabelPosition=bottom;verticalAlign=top;html=1;outlineConnect=0;sketch=1;curveFitting=1;jiggle=2;fontColor=#000000;whiteSpace=wrap;" vertex="1" parent="1">
          <mxGeometry x="900" y="-2870" width="30" height="60" as="geometry" />
        </mxCell>
        <mxCell id="jXtzwTDHDPlX1xh7_4lc-54" value="" style="edgeStyle=orthogonalEdgeStyle;rounded=0;orthogonalLoop=1;jettySize=auto;html=1;sketch=1;curveFitting=1;jiggle=2;fontColor=#000000;" edge="1" parent="1" source="jXtzwTDHDPlX1xh7_4lc-45" target="jXtzwTDHDPlX1xh7_4lc-53">
          <mxGeometry relative="1" as="geometry" />
        </mxCell>
        <mxCell id="jXtzwTDHDPlX1xh7_4lc-45" value="Actor" style="shape=umlActor;verticalLabelPosition=bottom;verticalAlign=top;html=1;outlineConnect=0;sketch=1;curveFitting=1;jiggle=2;fontColor=#000000;whiteSpace=wrap;" vertex="1" parent="1">
          <mxGeometry x="900" y="-2720" width="30" height="60" as="geometry" />
        </mxCell>
        <mxCell id="jXtzwTDHDPlX1xh7_4lc-47" value="元数据" style="ellipse;whiteSpace=wrap;html=1;aspect=fixed;fillColor=#a0522d;fontColor=#000000;strokeColor=#6D1F00;sketch=1;curveFitting=1;jiggle=2;" vertex="1" parent="1">
          <mxGeometry x="1260" y="-2820" width="80" height="80" as="geometry" />
        </mxCell>
        <mxCell id="jXtzwTDHDPlX1xh7_4lc-55" style="edgeStyle=orthogonalEdgeStyle;rounded=0;orthogonalLoop=1;jettySize=auto;html=1;entryX=-0.035;entryY=0.623;entryDx=0;entryDy=0;entryPerimeter=0;sketch=1;curveFitting=1;jiggle=2;fontColor=#000000;" edge="1" parent="1" source="jXtzwTDHDPlX1xh7_4lc-51" target="jXtzwTDHDPlX1xh7_4lc-47">
          <mxGeometry relative="1" as="geometry" />
        </mxCell>
        <mxCell id="jXtzwTDHDPlX1xh7_4lc-51" value="我需要元数据" style="whiteSpace=wrap;html=1;verticalAlign=top;fillColor=#b0e3e6;strokeColor=#0e8088;sketch=1;curveFitting=1;jiggle=2;fontColor=#000000;" vertex="1" parent="1">
          <mxGeometry x="965" y="-2855" width="185" height="30" as="geometry" />
        </mxCell>
        <mxCell id="jXtzwTDHDPlX1xh7_4lc-57" style="edgeStyle=orthogonalEdgeStyle;rounded=0;orthogonalLoop=1;jettySize=auto;html=1;sketch=1;curveFitting=1;jiggle=2;fontColor=#000000;" edge="1" parent="1" source="jXtzwTDHDPlX1xh7_4lc-53">
          <mxGeometry relative="1" as="geometry">
            <mxPoint x="1260" y="-2770" as="targetPoint" />
          </mxGeometry>
        </mxCell>
        <mxCell id="jXtzwTDHDPlX1xh7_4lc-53" value="我修改元数据" style="whiteSpace=wrap;html=1;verticalAlign=top;fillColor=#d0cee2;strokeColor=#56517e;sketch=1;curveFitting=1;jiggle=2;fontColor=#000000;" vertex="1" parent="1">
          <mxGeometry x="965" y="-2705" width="175" height="30" as="geometry" />
        </mxCell>
        <mxCell id="jXtzwTDHDPlX1xh7_4lc-64" value="" style="edgeStyle=orthogonalEdgeStyle;rounded=0;orthogonalLoop=1;jettySize=auto;html=1;sketch=1;curveFitting=1;jiggle=2;fontColor=#000000;" edge="1" parent="1" source="jXtzwTDHDPlX1xh7_4lc-58" target="jXtzwTDHDPlX1xh7_4lc-63">
          <mxGeometry relative="1" as="geometry" />
        </mxCell>
        <mxCell id="jXtzwTDHDPlX1xh7_4lc-58" value="01：在同一个事务中我多次读取数据" style="text;html=1;strokeColor=none;fillColor=none;align=center;verticalAlign=middle;whiteSpace=wrap;rounded=0;sketch=1;curveFitting=1;jiggle=2;fontColor=#000000;" vertex="1" parent="1">
          <mxGeometry x="787.5" y="-2910" width="255" height="20" as="geometry" />
        </mxCell>
        <mxCell id="jXtzwTDHDPlX1xh7_4lc-59" value="02：在01事务未结束的时候，我修改了数据，并提交了事务" style="text;html=1;strokeColor=none;fillColor=none;align=center;verticalAlign=middle;whiteSpace=wrap;rounded=0;sketch=1;curveFitting=1;jiggle=2;fontColor=#000000;" vertex="1" parent="1">
          <mxGeometry x="800" y="-2760" width="255" height="20" as="geometry" />
        </mxCell>
        <mxCell id="jXtzwTDHDPlX1xh7_4lc-63" value="03：在对次读取过程中，可能发现多次读取结果不同，这就造成同一事务过程中读取结果不同" style="text;html=1;strokeColor=none;fillColor=none;align=center;verticalAlign=middle;whiteSpace=wrap;rounded=0;sketch=1;curveFitting=1;jiggle=2;fontColor=#000000;" vertex="1" parent="1">
          <mxGeometry x="1171" y="-2915" width="349" height="30" as="geometry" />
        </mxCell>
        <mxCell id="jXtzwTDHDPlX1xh7_4lc-70" value="&lt;font style=&quot;font-size: 14px;&quot;&gt;解决方式：&lt;/font&gt;&lt;font style=&quot;font-size: 14px;&quot;&gt;对同一字段的多次读取结果都是一致的，除非数据是被本身事务自己所修改&lt;/font&gt;&lt;font style=&quot;font-size: 14px;&quot;&gt;（&lt;/font&gt;&lt;strong style=&quot;margin: 0px; padding: 0px; outline: 0px; max-width: 100%; box-sizing: border-box; font-family: Optima-Regular, Optima, PingFangSC-light, PingFangTC-light, &amp;quot;PingFang SC&amp;quot;, Cambria, Cochin, Georgia, Times, &amp;quot;Times New Roman&amp;quot;, serif; font-size: 16px; letter-spacing: 0.544px; text-align: left; text-indent: -20px; background-color: rgb(255, 255, 255); line-height: 1.5; overflow-wrap: break-word !important;&quot;&gt;REPEATABLE-READ&lt;/strong&gt;&lt;font style=&quot;font-size: 14px;&quot;&gt;）&lt;/font&gt;" style="text;html=1;strokeColor=#BD7000;fillColor=#f0a30a;align=center;verticalAlign=middle;whiteSpace=wrap;rounded=0;fontColor=#000000;sketch=1;curveFitting=1;jiggle=2;" vertex="1" parent="1">
          <mxGeometry x="1070" y="-2640" width="416" height="50" as="geometry" />
        </mxCell>
        <mxCell id="jXtzwTDHDPlX1xh7_4lc-75" value="" style="edgeStyle=orthogonalEdgeStyle;rounded=0;orthogonalLoop=1;jettySize=auto;html=1;sketch=1;curveFitting=1;jiggle=2;fontColor=#000000;" edge="1" parent="1" source="jXtzwTDHDPlX1xh7_4lc-71" target="jXtzwTDHDPlX1xh7_4lc-74">
          <mxGeometry relative="1" as="geometry" />
        </mxCell>
        <mxCell id="jXtzwTDHDPlX1xh7_4lc-71" value="Actor" style="shape=umlActor;verticalLabelPosition=bottom;verticalAlign=top;html=1;outlineConnect=0;sketch=1;curveFitting=1;jiggle=2;fontColor=#000000;whiteSpace=wrap;" vertex="1" parent="1">
          <mxGeometry x="890" y="-2490" width="30" height="60" as="geometry" />
        </mxCell>
        <mxCell id="jXtzwTDHDPlX1xh7_4lc-77" value="" style="edgeStyle=orthogonalEdgeStyle;rounded=0;orthogonalLoop=1;jettySize=auto;html=1;sketch=1;curveFitting=1;jiggle=2;fontColor=#000000;" edge="1" parent="1" source="jXtzwTDHDPlX1xh7_4lc-72" target="jXtzwTDHDPlX1xh7_4lc-76">
          <mxGeometry relative="1" as="geometry" />
        </mxCell>
        <mxCell id="jXtzwTDHDPlX1xh7_4lc-72" value="Actor" style="shape=umlActor;verticalLabelPosition=bottom;verticalAlign=top;html=1;outlineConnect=0;sketch=1;curveFitting=1;jiggle=2;fontColor=#000000;whiteSpace=wrap;" vertex="1" parent="1">
          <mxGeometry x="890" y="-2320" width="30" height="60" as="geometry" />
        </mxCell>
        <mxCell id="jXtzwTDHDPlX1xh7_4lc-73" value="元数据" style="ellipse;whiteSpace=wrap;html=1;aspect=fixed;fillColor=#d80073;fontColor=#000000;strokeColor=#A50040;sketch=1;curveFitting=1;jiggle=2;" vertex="1" parent="1">
          <mxGeometry x="1240" y="-2424" width="80" height="80" as="geometry" />
        </mxCell>
        <mxCell id="jXtzwTDHDPlX1xh7_4lc-78" style="edgeStyle=orthogonalEdgeStyle;rounded=0;orthogonalLoop=1;jettySize=auto;html=1;entryX=0;entryY=0.5;entryDx=0;entryDy=0;sketch=1;curveFitting=1;jiggle=2;fontColor=#000000;" edge="1" parent="1" source="jXtzwTDHDPlX1xh7_4lc-74" target="jXtzwTDHDPlX1xh7_4lc-73">
          <mxGeometry relative="1" as="geometry" />
        </mxCell>
        <mxCell id="jXtzwTDHDPlX1xh7_4lc-74" value="我需要元数据" style="whiteSpace=wrap;html=1;verticalAlign=top;fillColor=#6a00ff;fontColor=#000000;strokeColor=#3700CC;sketch=1;curveFitting=1;jiggle=2;" vertex="1" parent="1">
          <mxGeometry x="970" y="-2475" width="165" height="30" as="geometry" />
        </mxCell>
        <mxCell id="jXtzwTDHDPlX1xh7_4lc-79" style="edgeStyle=orthogonalEdgeStyle;rounded=0;orthogonalLoop=1;jettySize=auto;html=1;entryX=0;entryY=0.5;entryDx=0;entryDy=0;sketch=1;curveFitting=1;jiggle=2;fontColor=#000000;" edge="1" parent="1" source="jXtzwTDHDPlX1xh7_4lc-76" target="jXtzwTDHDPlX1xh7_4lc-73">
          <mxGeometry relative="1" as="geometry" />
        </mxCell>
        <mxCell id="jXtzwTDHDPlX1xh7_4lc-76" value="我插入几条元数据" style="whiteSpace=wrap;html=1;verticalAlign=top;fillColor=#60a917;fontColor=#000000;strokeColor=#2D7600;sketch=1;curveFitting=1;jiggle=2;" vertex="1" parent="1">
          <mxGeometry x="965" y="-2305" width="165" height="30" as="geometry" />
        </mxCell>
        <mxCell id="jXtzwTDHDPlX1xh7_4lc-84" value="" style="edgeStyle=orthogonalEdgeStyle;rounded=0;orthogonalLoop=1;jettySize=auto;html=1;sketch=1;curveFitting=1;jiggle=2;fontColor=#000000;" edge="1" parent="1" source="jXtzwTDHDPlX1xh7_4lc-81" target="jXtzwTDHDPlX1xh7_4lc-83">
          <mxGeometry relative="1" as="geometry" />
        </mxCell>
        <mxCell id="jXtzwTDHDPlX1xh7_4lc-81" value="01：同一个事务中我先前读取了一次数据" style="text;html=1;strokeColor=none;fillColor=none;align=center;verticalAlign=middle;whiteSpace=wrap;rounded=0;sketch=1;curveFitting=1;jiggle=2;fontColor=#000000;" vertex="1" parent="1">
          <mxGeometry x="777.5" y="-2536" width="275" height="36" as="geometry" />
        </mxCell>
        <mxCell id="jXtzwTDHDPlX1xh7_4lc-82" value="02：我对元数据进行了新增，并提交了事务" style="text;html=1;strokeColor=none;fillColor=none;align=left;verticalAlign=middle;whiteSpace=wrap;rounded=0;sketch=1;curveFitting=1;jiggle=2;fontColor=#000000;" vertex="1" parent="1">
          <mxGeometry x="810" y="-2374" width="275" height="36" as="geometry" />
        </mxCell>
        <mxCell id="jXtzwTDHDPlX1xh7_4lc-83" value="03：我再次读取数据，发现数据竟然多了一些，好像发生了幻觉一样，所以称为幻读" style="text;html=1;strokeColor=none;fillColor=none;align=center;verticalAlign=middle;whiteSpace=wrap;rounded=0;sketch=1;curveFitting=1;jiggle=2;fontColor=#000000;" vertex="1" parent="1">
          <mxGeometry x="1171" y="-2536" width="309" height="36" as="geometry" />
        </mxCell>
        <mxCell id="jXtzwTDHDPlX1xh7_4lc-86" value="&lt;font style=&quot;font-size: 14px;&quot;&gt;解决方式：最高的隔离级别，完全服从ACID的隔离级别。所有的事务依次逐个执行，这样事务之间就完全不可能产生干扰，也就是说 （&lt;br&gt;&lt;/font&gt;&lt;strong style=&quot;margin: 0px; padding: 0px; outline: 0px; max-width: 100%; box-sizing: border-box; font-family: Optima-Regular, Optima, PingFangSC-light, PingFangTC-light, &amp;quot;PingFang SC&amp;quot;, Cambria, Cochin, Georgia, Times, &amp;quot;Times New Roman&amp;quot;, serif; font-size: 16px; letter-spacing: 0.544px; text-align: left; text-indent: -20px; background-color: rgb(255, 255, 255); line-height: 1.5; overflow-wrap: break-word !important;&quot;&gt;SERIALIZABLE&lt;/strong&gt;&lt;font style=&quot;font-size: 14px;&quot;&gt;）&lt;/font&gt;" style="text;html=1;strokeColor=#BD7000;fillColor=#f0a30a;align=center;verticalAlign=middle;whiteSpace=wrap;rounded=0;fontColor=#000000;sketch=1;curveFitting=1;jiggle=2;" vertex="1" parent="1">
          <mxGeometry x="960" y="-2210" width="430" height="60" as="geometry" />
        </mxCell>
        <mxCell id="jXtzwTDHDPlX1xh7_4lc-94" value="" style="edgeStyle=orthogonalEdgeStyle;rounded=0;sketch=1;hachureGap=4;jiggle=2;curveFitting=1;orthogonalLoop=1;jettySize=auto;html=1;fontFamily=Architects Daughter;fontSource=https%3A%2F%2Ffonts.googleapis.com%2Fcss%3Ffamily%3DArchitects%2BDaughter;fontSize=16;" edge="1" parent="1" source="jXtzwTDHDPlX1xh7_4lc-88" target="jXtzwTDHDPlX1xh7_4lc-93">
          <mxGeometry relative="1" as="geometry" />
        </mxCell>
        <mxCell id="jXtzwTDHDPlX1xh7_4lc-88" value="REQUIRED" style="rounded=1;whiteSpace=wrap;html=1;sketch=1;hachureGap=4;jiggle=2;curveFitting=1;fontFamily=Architects Daughter;fontSource=https%3A%2F%2Ffonts.googleapis.com%2Fcss%3Ffamily%3DArchitects%2BDaughter;fontSize=20;fillColor=#dae8fc;strokeColor=#6c8ebf;" vertex="1" parent="1">
          <mxGeometry x="-34" y="-2030" width="170" height="60" as="geometry" />
        </mxCell>
        <mxCell id="jXtzwTDHDPlX1xh7_4lc-96" value="" style="edgeStyle=orthogonalEdgeStyle;rounded=0;sketch=1;hachureGap=4;jiggle=2;curveFitting=1;orthogonalLoop=1;jettySize=auto;html=1;fontFamily=Architects Daughter;fontSource=https%3A%2F%2Ffonts.googleapis.com%2Fcss%3Ffamily%3DArchitects%2BDaughter;fontSize=16;" edge="1" parent="1" source="jXtzwTDHDPlX1xh7_4lc-89" target="jXtzwTDHDPlX1xh7_4lc-95">
          <mxGeometry relative="1" as="geometry" />
        </mxCell>
        <mxCell id="jXtzwTDHDPlX1xh7_4lc-89" value="SUPPORTS" style="rounded=1;whiteSpace=wrap;html=1;sketch=1;hachureGap=4;jiggle=2;curveFitting=1;fontFamily=Architects Daughter;fontSource=https%3A%2F%2Ffonts.googleapis.com%2Fcss%3Ffamily%3DArchitects%2BDaughter;fontSize=20;fillColor=#fff2cc;strokeColor=#d6b656;" vertex="1" parent="1">
          <mxGeometry x="150" y="-2030" width="191" height="60" as="geometry" />
        </mxCell>
        <mxCell id="jXtzwTDHDPlX1xh7_4lc-99" value="" style="edgeStyle=orthogonalEdgeStyle;rounded=0;sketch=1;hachureGap=4;jiggle=2;curveFitting=1;orthogonalLoop=1;jettySize=auto;html=1;fontFamily=Architects Daughter;fontSource=https%3A%2F%2Ffonts.googleapis.com%2Fcss%3Ffamily%3DArchitects%2BDaughter;fontSize=16;" edge="1" parent="1" source="jXtzwTDHDPlX1xh7_4lc-90" target="jXtzwTDHDPlX1xh7_4lc-98">
          <mxGeometry relative="1" as="geometry" />
        </mxCell>
        <mxCell id="jXtzwTDHDPlX1xh7_4lc-90" value="REQUIRES_NEW" style="rounded=1;whiteSpace=wrap;html=1;sketch=1;hachureGap=4;jiggle=2;curveFitting=1;fontFamily=Architects Daughter;fontSource=https%3A%2F%2Ffonts.googleapis.com%2Fcss%3Ffamily%3DArchitects%2BDaughter;fontSize=20;fillColor=#e1d5e7;strokeColor=#9673a6;" vertex="1" parent="1">
          <mxGeometry x="360" y="-2030" width="180" height="60" as="geometry" />
        </mxCell>
        <mxCell id="jXtzwTDHDPlX1xh7_4lc-92" value="常用事务传播属性" style="text;html=1;strokeColor=none;fillColor=none;align=center;verticalAlign=middle;whiteSpace=wrap;rounded=0;fontSize=20;fontFamily=Architects Daughter;" vertex="1" parent="1">
          <mxGeometry x="151" y="-2090" width="209" height="30" as="geometry" />
        </mxCell>
        <mxCell id="jXtzwTDHDPlX1xh7_4lc-101" value="" style="edgeStyle=orthogonalEdgeStyle;rounded=0;sketch=1;hachureGap=4;jiggle=2;curveFitting=1;orthogonalLoop=1;jettySize=auto;html=1;fontFamily=Architects Daughter;fontSource=https%3A%2F%2Ffonts.googleapis.com%2Fcss%3Ffamily%3DArchitects%2BDaughter;fontSize=16;" edge="1" parent="1" source="jXtzwTDHDPlX1xh7_4lc-93" target="jXtzwTDHDPlX1xh7_4lc-100">
          <mxGeometry relative="1" as="geometry" />
        </mxCell>
        <mxCell id="jXtzwTDHDPlX1xh7_4lc-93" value="&lt;font style=&quot;font-size: 14px;&quot;&gt;有事务就就依赖他不创建新事务&lt;/font&gt;" style="whiteSpace=wrap;html=1;fontSize=20;fontFamily=Architects Daughter;fillColor=#dae8fc;strokeColor=#6c8ebf;rounded=1;sketch=1;hachureGap=4;jiggle=2;curveFitting=1;fontSource=https%3A%2F%2Ffonts.googleapis.com%2Fcss%3Ffamily%3DArchitects%2BDaughter;" vertex="1" parent="1">
          <mxGeometry x="-90" y="-1870" width="223.5" height="60" as="geometry" />
        </mxCell>
        <mxCell id="jXtzwTDHDPlX1xh7_4lc-103" value="" style="edgeStyle=orthogonalEdgeStyle;rounded=0;sketch=1;hachureGap=4;jiggle=2;curveFitting=1;orthogonalLoop=1;jettySize=auto;html=1;fontFamily=Architects Daughter;fontSource=https%3A%2F%2Ffonts.googleapis.com%2Fcss%3Ffamily%3DArchitects%2BDaughter;fontSize=16;" edge="1" parent="1" source="jXtzwTDHDPlX1xh7_4lc-95" target="jXtzwTDHDPlX1xh7_4lc-102">
          <mxGeometry relative="1" as="geometry" />
        </mxCell>
        <mxCell id="jXtzwTDHDPlX1xh7_4lc-95" value="&lt;font style=&quot;font-size: 14px;&quot;&gt;不开启新事务，融合到外部事务&lt;/font&gt;" style="whiteSpace=wrap;html=1;fontSize=20;fontFamily=Architects Daughter;fillColor=#fff2cc;strokeColor=#d6b656;rounded=1;sketch=1;hachureGap=4;jiggle=2;curveFitting=1;fontSource=https%3A%2F%2Ffonts.googleapis.com%2Fcss%3Ffamily%3DArchitects%2BDaughter;" vertex="1" parent="1">
          <mxGeometry x="150" y="-1870" width="230" height="60" as="geometry" />
        </mxCell>
        <mxCell id="jXtzwTDHDPlX1xh7_4lc-105" value="" style="edgeStyle=orthogonalEdgeStyle;rounded=0;sketch=1;hachureGap=4;jiggle=2;curveFitting=1;orthogonalLoop=1;jettySize=auto;html=1;fontFamily=Architects Daughter;fontSource=https%3A%2F%2Ffonts.googleapis.com%2Fcss%3Ffamily%3DArchitects%2BDaughter;fontSize=16;" edge="1" parent="1" source="jXtzwTDHDPlX1xh7_4lc-98" target="jXtzwTDHDPlX1xh7_4lc-104">
          <mxGeometry relative="1" as="geometry" />
        </mxCell>
        <mxCell id="jXtzwTDHDPlX1xh7_4lc-98" value="&lt;font style=&quot;font-size: 14px;&quot;&gt;创建新事务&lt;/font&gt;" style="whiteSpace=wrap;html=1;fontSize=20;fontFamily=Architects Daughter;fillColor=#e1d5e7;strokeColor=#9673a6;rounded=1;sketch=1;hachureGap=4;jiggle=2;curveFitting=1;fontSource=https%3A%2F%2Ffonts.googleapis.com%2Fcss%3Ffamily%3DArchitects%2BDaughter;" vertex="1" parent="1">
          <mxGeometry x="400" y="-1870" width="120" height="60" as="geometry" />
        </mxCell>
        <mxCell id="jXtzwTDHDPlX1xh7_4lc-100" value="增删改" style="ellipse;whiteSpace=wrap;html=1;fontSize=20;fontFamily=Architects Daughter;fillColor=#dae8fc;strokeColor=#6c8ebf;rounded=1;sketch=1;hachureGap=4;jiggle=2;curveFitting=1;fontSource=https%3A%2F%2Ffonts.googleapis.com%2Fcss%3Ffamily%3DArchitects%2BDaughter;" vertex="1" parent="1">
          <mxGeometry x="-18.25" y="-1740" width="80" height="80" as="geometry" />
        </mxCell>
        <mxCell id="jXtzwTDHDPlX1xh7_4lc-102" value="查询" style="ellipse;whiteSpace=wrap;html=1;fontSize=20;fontFamily=Architects Daughter;fillColor=#fff2cc;strokeColor=#d6b656;rounded=1;sketch=1;hachureGap=4;jiggle=2;curveFitting=1;fontSource=https%3A%2F%2Ffonts.googleapis.com%2Fcss%3Ffamily%3DArchitects%2BDaughter;" vertex="1" parent="1">
          <mxGeometry x="225" y="-1740" width="80" height="80" as="geometry" />
        </mxCell>
        <mxCell id="jXtzwTDHDPlX1xh7_4lc-104" value="日志" style="ellipse;whiteSpace=wrap;html=1;fontSize=20;fontFamily=Architects Daughter;fillColor=#e1d5e7;strokeColor=#9673a6;rounded=1;sketch=1;hachureGap=4;jiggle=2;curveFitting=1;fontSource=https%3A%2F%2Ffonts.googleapis.com%2Fcss%3Ffamily%3DArchitects%2BDaughter;" vertex="1" parent="1">
          <mxGeometry x="420" y="-1740" width="80" height="80" as="geometry" />
        </mxCell>
      </root>
    </mxGraphModel>
  </diagram>
</mxfile>
